<svg version="1.1" id="Layer_1" xmlns="http://www.w3.org/2000/svg" xmlns:xlink="http://www.w3.org/1999/xlink" x="0px" y="0px"
	 width="100%" viewBox="0 0 134 90" enable-background="new 0 0 134 90" xml:space="preserve">
<path fill="none" opacity="1.000000" stroke="#000000" stroke-linecap="round" stroke-linejoin="round" stroke-width="3.000000"
	d="
M109.000000,28.500000 
	C113.958115,30.789968 115.183029,35.058174 114.987694,39.999512 
	C114.668251,48.080692 113.939461,56.096855 112.118073,64.027115 
	C111.561211,66.451660 110.657097,66.900490 108.504929,67.064629 
	C105.152954,67.320274 101.848167,68.187233 98.496254,68.452736 
	C94.281487,68.786575 90.026474,68.759674 87.009499,64.992393 
	C85.412598,62.998352 83.256691,62.975410 80.999931,62.985920 
	C73.166771,63.022400 65.333275,63.018002 57.500023,62.992916 
	C53.144043,62.978966 49.099651,62.861382 45.378948,66.371696 
	C41.025978,70.478516 35.098705,68.470184 30.020639,67.835007 
	C21.674051,66.790970 21.393894,66.382034 20.156969,54.483681 
	C19.625029,49.366806 18.610445,44.242950 18.928272,38.995655 
	C19.204098,34.441814 20.056156,30.567026 25.000000,29.000000 
"/>
<path fill="none" opacity="1.000000" stroke="#000000" stroke-linecap="round" stroke-linejoin="round" stroke-width="3.000000"
	d="
M99.500000,23.000000 
	C101.757523,18.413973 105.997475,20.204420 109.502914,20.117088 
	C111.029488,20.079060 112.441025,21.597231 111.953812,23.488098 
	C111.368904,25.758112 109.801186,27.724670 107.492058,27.887230 
	C104.454597,28.101065 102.017120,26.984322 99.314095,24.722132 
	C93.657265,19.987892 88.043152,15.313486 79.527390,14.649024 
	C70.074371,13.911431 60.829575,14.590064 51.501274,15.027189 
	C44.895187,15.336750 40.128258,19.761551 35.693890,23.717346 
	C32.711960,26.377455 30.079323,28.033422 26.250000,28.000000 
"/>
<path fill="none" opacity="1.000000" stroke="#000000" stroke-linecap="round" stroke-linejoin="round" stroke-width="3.000000"
	d="
M92.500000,29.500000 
	C87.207504,23.896507 81.198837,20.195581 72.992889,20.919428 
	C68.031494,21.357073 62.998978,21.064095 58.000248,20.984373 
	C51.184864,20.875683 46.632473,24.780781 41.818581,29.105356 
	C46.549713,31.845383 82.572975,32.191761 94.500000,30.000000 
"/>
<path fill="none" opacity="1.000000" stroke="#000000" stroke-linecap="round" stroke-linejoin="round" stroke-width="3.000000"
	d="
M44.500000,44.000000 
	C39.660957,44.347031 36.609180,40.412842 32.508911,38.974594 
	C30.858131,38.395546 29.429468,37.123997 27.454792,37.537189 
	C27.306355,38.830589 27.653723,40.685535 26.907326,41.403679 
	C24.549814,43.671947 27.628614,44.825249 28.008877,44.847363 
	C32.328224,45.098537 36.666668,47.654530 41.000000,45.000000 
"/>
<path fill="none" opacity="1.000000" stroke="#000000" stroke-linecap="round" stroke-linejoin="round" stroke-width="3.000000"
	d="
M35.000000,23.500000 
	C33.404545,20.395020 30.734623,19.759605 27.497023,19.949160 
	C25.240452,20.081276 22.900518,19.896950 22.043268,22.514172 
	C21.218708,25.031599 23.605783,25.762812 25.000000,27.000000 
"/>
<path fill="none" opacity="1.000000" stroke="#000000" stroke-linecap="round" stroke-linejoin="round" stroke-width="3.000000"
	d="
M93.000000,45.000000 
	C97.333336,47.389252 101.974586,46.235001 105.888557,44.713348 
	C108.375755,43.746387 107.165367,40.000000 105.916534,37.065742 
	C102.382034,38.740017 98.941017,40.370007 95.500000,42.000000 
"/>
<path fill="none" opacity="1.000000" stroke="#000000" stroke-linecap="round" stroke-linejoin="round" stroke-width="3.000000"
	d="
M94.500000,42.500000 
	C92.796158,43.073727 91.662682,45.073368 89.500000,44.500000 
"/>
<path fill="none" opacity="1.000000" stroke="#000000" stroke-linecap="round" stroke-linejoin="round" stroke-width="3.000000"
	d="
M53.500000,47.000000 
	C51.485104,48.057728 49.253227,48.681564 50.405544,52.032482 
	C51.464966,55.113270 53.538971,55.040428 56.000168,55.020550 
	C63.166367,54.962658 70.337921,54.849255 77.497955,55.067142 
	C80.801361,55.167667 83.282631,54.688446 84.046654,50.759647 
	C83.100960,47.606773 80.754562,46.867542 77.498672,46.942017 
	C69.669434,47.121101 61.833332,47.000000 54.000000,47.000000 
"/>
</svg>