<?xml version="1.0" encoding="UTF-8"?>
<svg version="1.1" xmlns="http://www.w3.org/2000/svg" width="500" height="500">
<path d="M0 0 C1.60875 0.309375 1.60875 0.309375 3.25 0.625 C7.4699234 2.7349617 9.49187261 6.10093471 12 10 C12.61875 10.886875 13.2375 11.77375 13.875 12.6875 C16.11808614 19.29214254 16.14704889 26.95705819 13.4375 33.4375 C11.42718494 38.41958515 12.28722076 41.05276975 14.078125 45.9453125 C16.62716634 49.99683755 19.29399746 51.01597079 23.625 52.75 C30.89527027 55.79054054 30.89527027 55.79054054 32 58 C33.98421259 58.71228144 35.98967123 59.36515933 38 60 C45.88515881 62.680954 53.10194711 66.59484452 60.39916992 70.55859375 C61.19299072 70.9865625 61.98681152 71.41453125 62.8046875 71.85546875 C63.51608887 72.24371826 64.22749023 72.63196777 64.96044922 73.03198242 C66.96653676 73.98411758 68.83245109 74.54352967 71 75 C71 75.66 71 76.32 71 77 C71.845625 77.268125 72.69125 77.53625 73.5625 77.8125 C83.64835165 81.2967033 83.64835165 81.2967033 85 84 C87.54384467 84.83833204 87.54384467 84.83833204 90.5 85.5 C93.53125 86.21875 93.53125 86.21875 96 87 C96.33 87.66 96.66 88.32 97 89 C99.43510496 89.66390352 99.43510496 89.66390352 102.375 90.0625 C103.84066406 90.29646484 103.84066406 90.29646484 105.3359375 90.53515625 C114.63995204 91.7155163 123.81559472 92.14208418 133.19140625 92.17578125 C135.7076908 92.19896429 138.22396689 92.22308098 140.74023438 92.24804688 C144.65915764 92.28318866 148.57776415 92.3125521 152.49682617 92.32592773 C156.31206174 92.34145333 160.1264078 92.38166643 163.94140625 92.42578125 C165.10209122 92.42387283 166.26277618 92.42196442 167.45863342 92.41999817 C175.62813371 92.54192767 183.5056094 93.45592612 189.47265625 99.5078125 C190.25962891 100.80332031 190.25962891 100.80332031 191.0625 102.125 C191.61035156 102.99382812 192.15820312 103.86265625 192.72265625 104.7578125 C196.15139119 110.77644814 195.5860995 117.2497506 195 124 C193.26932537 130.03795903 190.3552144 134.69319435 184.98046875 138.0390625 C181.44540336 139.75430133 177.7788228 140.94604262 174 142 C174.58007812 142.65355469 174.58007812 142.65355469 175.171875 143.3203125 C178.43708545 147.05429079 181.26610953 150.85202825 184 155 C184.99729365 156.00269904 185.9974906 157.00251571 187 158 C190.41053419 162.24356697 193.51771676 166.71994684 196.625 171.1875 C199.37061454 175.13131036 202.20127728 178.92575039 205.3515625 182.55859375 C209 186.80831006 209 186.80831006 209 189 C209.66 189 210.32 189 211 189 C212.4991644 190.9266121 213.88077557 192.85814003 215.25 194.875 C219.94679425 201.63083215 224.92026357 208.13436802 230.00097656 214.60498047 C231.1246122 216.03643941 232.24314025 217.47192421 233.35620117 218.91162109 C234.45150729 220.30316254 235.57718094 221.67132987 236.73168945 223.01416016 C240.75949852 227.8699774 241.95492584 231.34014894 241.6875 237.625 C241.66969482 238.40407715 241.65188965 239.1831543 241.63354492 239.98583984 C241.12888487 250.93617977 237.26735717 262.94063034 229.234375 270.70703125 C228.0598349 271.72118247 226.86633891 272.71413511 225.6484375 273.67578125 C223.9752332 275.01989561 222.50587409 276.47326892 221 278 C216.54784248 281.59044962 211.82085768 283.51836316 206.5 285.5625 C205.3759375 285.99691406 204.251875 286.43132812 203.09375 286.87890625 C197.81973479 288.79007085 193.24664383 289.13899641 187.65136719 289.11352539 C186.39228043 289.11374443 186.39228043 289.11374443 185.10775757 289.1139679 C182.33743696 289.11327207 179.56718385 289.10549507 176.796875 289.09765625 C174.87445106 289.0957909 172.95202664 289.09436755 171.02960205 289.09336853 C165.97272425 289.08955257 160.91587523 289.07973012 155.85900879 289.06866455 C150.69767649 289.05843065 145.53633953 289.05386667 140.375 289.04882812 C130.24998737 289.03810705 120.12499608 289.02104165 110 289 C110 288.34 110 287.68 110 287 C109.154375 286.87625 108.30875 286.7525 107.4375 286.625 C97.7848067 284.86996486 97.7848067 284.86996486 94 281 C92.57707274 280.08119554 91.13814118 279.18689339 89.6875 278.3125 C85.60547332 275.6575233 82.99950844 272.85014848 80.2890625 268.83203125 C79.07835675 266.9809584 79.07835675 266.9809584 77.53125 265.6171875 C72.23046413 260.01890855 69.12791039 251.61066818 69 244 C68.85691406 242.24623047 68.85691406 242.24623047 68.7109375 240.45703125 C68.17888442 230.47610952 68.17888442 230.47610952 70.3515625 226.5703125 C72.125 224.625 72.125 224.625 73.99829102 222.95068359 C75.97849103 221.02096068 77.33048279 219.17592933 78.80078125 216.84375 C81.96742202 211.97268221 85.45845218 207.42789248 89.0625 202.875 C90.26307676 201.35263248 91.46231714 199.82921001 92.66015625 198.3046875 C93.22750488 197.5837793 93.79485352 196.86287109 94.37939453 196.12011719 C95.92256676 194.10130013 97.37138682 192.04029571 98.80859375 189.9453125 C99.53175781 188.97335938 100.25492187 188.00140625 101 187 C101.66 187 102.32 187 103 187 C103.2578125 186.4328125 103.515625 185.865625 103.78125 185.28125 C105.56836205 181.93614283 107.96632872 179.16030515 110.34375 176.21875 C111.86344227 174.18293583 112.87125025 172.26179132 114 170 C119.03502896 162.75177149 124.61043603 155.95535911 130.36889648 149.27758789 C132.40474968 146.91381203 134.26618515 144.60072228 136 142 C135.04859131 141.98541748 134.09718262 141.97083496 133.11694336 141.95581055 C129.51015792 141.89684113 125.90393442 141.81963859 122.29760742 141.73754883 C120.75115227 141.70475444 119.20459044 141.67658917 117.65795898 141.65356445 C103.39893145 141.43576325 90.44176722 140.00372346 77.29296875 133.98828125 C75.11003523 132.86806447 75.11003523 132.86806447 73 133 C73 132.34 73 131.68 73 131 C72.13375 130.731875 71.2675 130.46375 70.375 130.1875 C61.53932584 127.07865169 61.53932584 127.07865169 60 124 C58.7934375 123.5359375 58.7934375 123.5359375 57.5625 123.0625 C55 122 55 122 53 119 C52.44761829 114.10747629 52.28918933 112.08842884 55 107.9375 C58.39744017 105.74331989 59.9732113 105.85826899 63.88232422 106.46362305 C67.32792257 107.33634377 70.08992498 109.03545596 73.0625 110.9375 C76.55504386 113.13359901 79.85429182 115.08091126 83.87109375 116.12890625 C84.90363281 116.41636719 85.93617188 116.70382813 87 117 C87.33 117.66 87.66 118.32 88 119 C93.19432248 120.58470855 98.57858775 121.28533749 104 121 C104 121.33 104 121.66 104 122 C111.57211664 123.02083425 119.00999865 123.14536093 126.64453125 123.1328125 C127.93187668 123.13376923 129.21922211 123.13472595 130.545578 123.13571167 C133.25264707 123.13717616 135.95968288 123.13507282 138.66674805 123.13037109 C142.13114187 123.12464584 145.59545867 123.12797828 149.05984974 123.13394356 C152.37974976 123.13842611 155.69962905 123.13528898 159.01953125 123.1328125 C160.2612056 123.13483673 161.50287994 123.13686096 162.78218079 123.13894653 C163.9340538 123.13579437 165.08592682 123.13264221 166.27270508 123.12939453 C167.28480545 123.12859894 168.29690582 123.12780334 169.3396759 123.12698364 C171.72058725 123.01333704 173.72522807 122.68146132 176 122 C176.91194105 118.43513952 177.26830444 116.60368499 175.75 113.1875 C174.11369179 110.736091 174.11369179 110.736091 171 110 C169.06018645 109.89310891 167.1169939 109.84392204 165.17431641 109.82641602 C163.97521637 109.81292618 162.77611633 109.79943634 161.54067993 109.78553772 C160.24077118 109.77509933 158.94086243 109.76466095 157.6015625 109.75390625 C156.24693011 109.73838662 154.89230547 109.7221758 153.53768921 109.70530701 C147.79361082 109.63481993 142.0494525 109.57496707 136.30517578 109.52319336 C132.78728774 109.49101049 129.26959771 109.44962755 125.75187302 109.40299797 C123.78424692 109.37959242 121.81650816 109.36634712 119.8487854 109.35340881 C99.11309304 109.07299496 83.11150593 103.44739722 65.140625 93.73046875 C59.42613862 90.65237069 53.57342115 87.96594075 47.640625 85.33984375 C45 84 45 84 44 82 C42.01463373 81.29094062 40.01089078 80.63305821 38 80 C31.22333752 77.44667503 31.22333752 77.44667503 30 75 C28.01463373 74.29094062 26.01089078 73.63305821 24 73 C22.72335326 72.47218068 21.45235151 71.93049149 20.1875 71.375 C17.42553538 69.93398481 17.42553538 69.93398481 16 70 C16 73.3 16 76.6 16 80 C17.299375 80.61875 18.59875 81.2375 19.9375 81.875 C23.875 83.75 23.875 83.75 25 86 C27.66122641 87.21656064 30.32173437 88.09652031 33.125 88.9375 C36.05115929 90.01890669 36.94973597 90.77888063 39 93 C40.03125 93.680625 41.0625 94.36125 42.125 95.0625 C45 97 45 97 46 99 C46.25820802 102.48580822 46.41156005 105.10425167 44.9375 108.3125 C41.90369762 110.95484401 40.04395176 111.61486174 36 112 C33.43494993 110.850892 31.22953946 109.46651518 28.91796875 107.87109375 C24.81231963 105.23842182 20.36232197 103.18116099 16 101 C15.67 165.35 15.34 229.7 15 296 C17.31 296 19.62 296 22 296 C28.23665975 297.59089828 33.86933201 300.09091963 39 304 C39.845625 304.639375 40.69125 305.27875 41.5625 305.9375 C42.366875 306.618125 43.17125 307.29875 44 308 C44.845625 308.70125 45.69125 309.4025 46.5625 310.125 C50.71224696 315.01957334 53 320.57811395 53 327 C59.6 327 66.2 327 73 327 C73 327.66 73 328.32 73 329 C73.73605469 329.11085938 74.47210938 329.22171875 75.23046875 329.3359375 C82.66124391 331.11764664 89.79400021 337.57601499 95 343 C96.3125 345.5 96.3125 345.5 97 348 C97.53625 349.19625 98.0725 350.3925 98.625 351.625 C100 355 100 355 100 358 C100.66 358 101.32 358 102 358 C101.96672682 359.89657143 101.89707677 361.79252321 101.8125 363.6875 C101.76029297 365.27111328 101.76029297 365.27111328 101.70703125 366.88671875 C100.76293596 371.04386763 99.34482563 372.37621908 96 375 C92.96410459 375.49220353 90.49151879 375.67723054 87.45996094 375.63491821 C86.1725255 375.64661814 86.1725255 375.64661814 84.85908127 375.65855443 C81.98374224 375.6784946 79.10972379 375.6627021 76.234375 375.64697266 C74.17280301 375.65374787 72.11123707 375.66265046 70.04968262 375.67352295 C64.4504973 375.69633407 58.85177218 375.68747225 53.25257874 375.67162752 C47.39591217 375.65897804 41.53928528 375.67070599 35.68261719 375.67855835 C25.84693316 375.68765766 16.01143679 375.6756595 6.17578125 375.65185547 C-5.19932214 375.6246438 -16.57397745 375.63345776 -27.94906998 375.6609875 C-37.71141524 375.68366943 -47.47362552 375.68688308 -57.23598862 375.67379415 C-63.06841121 375.66599466 -68.90062313 375.6649719 -74.73303223 375.68147659 C-80.21611022 375.69590861 -85.69860992 375.68592234 -91.18162537 375.65700531 C-93.19521626 375.65038778 -95.20885573 375.6523035 -97.22242737 375.66331863 C-99.96893126 375.67695925 -102.71357592 375.65987676 -105.45996094 375.63491821 C-106.25908527 375.64607182 -107.05820961 375.65722543 -107.88154984 375.66871703 C-111.92679867 375.59728417 -113.78152416 375.17315032 -116.99224854 372.6285305 C-119.96527481 368.73627073 -119.70000341 366.00487904 -119.47265625 361.25390625 C-117.80848981 349.79728934 -111.55830467 341.34841053 -102.734375 334.15234375 C-92.49017303 326.86320004 -83.14393668 326.59768553 -71 327 C-70.88398438 325.93007813 -70.76796875 324.86015625 -70.6484375 323.7578125 C-70.05952552 320.34496114 -69.53973607 318.64846619 -67.625 315.875 C-66.13621836 313.67788065 -64.79569866 311.60916265 -63.5625 309.25 C-59.10709152 302.83421179 -49.22535748 298.82993288 -42.0703125 296.32421875 C-39.08137356 295.85613963 -36.02536842 296 -33 296 C-33.33 232.31 -33.66 168.62 -34 103 C-38.59710797 103.91942159 -42.08815327 105.33223797 -46.1875 107.4375 C-46.87223389 107.78514404 -47.55696777 108.13278809 -48.26245117 108.4909668 C-53.82702689 111.34252193 -59.33223778 114.30249696 -64.8125 117.3125 C-65.58295654 117.73265381 -66.35341309 118.15280762 -67.1472168 118.58569336 C-67.86820557 118.98667236 -68.58919434 119.38765137 -69.33203125 119.80078125 C-69.96858643 120.15309814 -70.6051416 120.50541504 -71.26098633 120.8684082 C-73.06692969 121.95576033 -73.06692969 121.95576033 -74.55981445 123.57836914 C-76.69238625 125.68346586 -79.16218528 126.09001191 -82 127 C-84.58365012 128.21077766 -87.09773488 129.55129637 -89.625 130.875 C-105.48871398 138.96809952 -120.56233172 141.25919822 -138.1875 141.625 C-139.72723323 141.66327842 -141.26694732 141.70233546 -142.80664062 141.7421875 C-146.53758283 141.83708824 -150.26867242 141.92149948 -154 142 C-153.2174585 142.90516357 -152.43491699 143.81032715 -151.62866211 144.74291992 C-146.90694652 150.21471318 -142.36052224 155.62096505 -138.47265625 161.73046875 C-133.25295963 169.77554427 -133.25295963 169.77554427 -127 177 C-125.45286749 179.05583641 -123.94543445 181.13793688 -122.4375 183.22265625 C-121.10640238 185.11938462 -121.10640238 185.11938462 -119 186 C-117.99304223 187.75405546 -116.98879255 189.5099923 -116.01953125 191.28515625 C-114.9065693 193.15714972 -113.57241848 194.50620245 -112 196 C-112 196.66 -112 197.32 -112 198 C-111.34 198 -110.68 198 -110 198 C-108.73828125 199.65234375 -108.73828125 199.65234375 -107.3125 201.9375 C-103.55033954 207.77850707 -99.28988653 213.15498946 -94.9375 218.5625 C-94.298125 219.366875 -93.65875 220.17125 -93 221 C-92.48050781 221.51175781 -91.96101562 222.02351562 -91.42578125 222.55078125 C-87.42610782 226.90473811 -86.55320289 230.27447331 -86.4375 236.1875 C-87.08645272 250.99542112 -90.68872699 260.37119594 -100.4375 271.25 C-100.89189453 271.75797119 -101.34628906 272.26594238 -101.81445312 272.78930664 C-104.90905783 276.12616018 -108.16699316 278.57170305 -112 281 C-112.7734375 281.804375 -112.7734375 281.804375 -113.5625 282.625 C-122.28748479 290.97063762 -139.49369302 289.4587825 -150.65234375 289.43359375 C-152.44251196 289.43816666 -154.23267842 289.44347549 -156.02284241 289.44947815 C-159.75708187 289.458363 -163.49110693 289.45603906 -167.2253418 289.44604492 C-171.97704852 289.43455779 -176.72801174 289.45478655 -181.47962093 289.48396206 C-185.17143848 289.50243205 -188.86308133 289.5020103 -192.55493355 289.49632454 C-194.30537522 289.49617266 -196.05582976 289.50210481 -197.80622673 289.51461601 C-208.2822759 289.57896903 -217.08013924 288.77151153 -227 285 C-228.05859726 284.67192856 -229.11719452 284.34385712 -230.20787048 284.00584412 C-233.80962601 282.70833819 -235.39103874 280.79531563 -238 278 C-239.28287865 276.88563507 -240.57532362 275.78222741 -241.875 274.6875 C-250.97377015 266.70251527 -257.80258358 257.46828286 -259.22460938 245.03637695 C-260.14433199 229.22581756 -260.14433199 229.22581756 -256.125 224.1875 C-254.76166305 222.78027292 -253.38545583 221.38545583 -252 220 C-250.36801605 217.9320938 -248.76825717 215.85582522 -247.1875 213.75 C-246.33075734 212.63309293 -245.47266923 211.5172167 -244.61328125 210.40234375 C-242.87945448 208.14610039 -241.14796977 205.88808405 -239.41796875 203.62890625 C-235.65425103 198.71814389 -231.87866552 193.8210722 -228 189 C-215.34261823 173.68439446 -215.34261823 173.68439446 -204.40234375 157.1875 C-203.93957031 156.465625 -203.47679687 155.74375 -203 155 C-202.34 155 -201.68 155 -201 155 C-200.773125 154.278125 -200.54625 153.55625 -200.3125 152.8125 C-198.75358681 149.47197174 -196.59053053 147.59053053 -194 145 C-193.32608183 142.91615453 -193.32608183 142.91615453 -193 141 C-193.58007812 140.84144531 -194.16015625 140.68289062 -194.7578125 140.51953125 C-201.90199354 138.3857082 -206.67983034 135.37869119 -210.875 129.0625 C-214.36278048 122.30139803 -214.13192767 114.58097787 -212.3359375 107.3125 C-210.26926366 101.99306126 -206.97866672 97.85968616 -202 95 C-195.45359512 92.56156454 -189.08328065 92.68708493 -182.15625 92.65625 C-180.2934137 92.6343158 -180.2934137 92.6343158 -178.39294434 92.61193848 C-174.42868089 92.5655721 -170.46440489 92.53098322 -166.5 92.5 C-141.28687936 93.39833173 -141.28687936 93.39833173 -117 88 C-115.5657041 87.61292569 -114.12799582 87.23832221 -112.6875 86.875 C-107.00944358 85.22708287 -101.92664047 82.60165364 -96.7097168 79.86865234 C-92.87553989 77.87171482 -89.16136893 76.24711833 -85 75 C-85 74.34 -85 73.68 -85 73 C-84.06542969 72.59910156 -83.13085938 72.19820313 -82.16796875 71.78515625 C-73.39108172 67.99405694 -64.72137674 64.02536407 -56.12182617 59.84594727 C-55.35201416 59.47526123 -54.58220215 59.1045752 -53.7890625 58.72265625 C-53.10537598 58.39015869 -52.42168945 58.05766113 -51.71728516 57.71508789 C-50 57 -50 57 -48 57 C-47.67 56.34 -47.34 55.68 -47 55 C-45.109375 54.03515625 -45.109375 54.03515625 -42.75 53.0625 C-41.93660156 52.70671875 -41.12320313 52.3509375 -40.28515625 51.984375 C-38.58883546 51.2536522 -36.88906067 50.53093673 -35.1875 49.8125 C-31.72901195 46.94689561 -30.1476884 43.30193135 -29 39 C-29.47730529 36.2225097 -29.47730529 36.2225097 -31 34 C-33.90358844 27.76582482 -34.00315877 21.1205699 -32.3828125 14.46484375 C-29.73595626 7.63689158 -24.80715422 2.99422364 -18.375 -0.375 C-17.59125 -0.58125 -16.8075 -0.7875 -16 -1 C-14.6696875 -1.37125 -14.6696875 -1.37125 -13.3125 -1.75 C-8.63365913 -2.10312007 -4.52941999 -1.10275095 0 0 Z M-12.8125 17.125 C-15.02998506 18.80409081 -15.02998506 18.80409081 -16 20.8125 C-16 24.20589004 -14.86175544 26.20736684 -13 29 C-10.65904469 30.25153259 -10.65904469 30.25153259 -8 30 C-5.17862819 29.00719496 -5.17862819 29.00719496 -3 27 C-1.93305454 24.22594179 -1.82470119 22.6817176 -2.5625 19.8125 C-5.39944773 16.23547895 -8.64485886 15.45794354 -12.8125 17.125 Z M-15 50 C-15.915351 52.74605301 -16.12450327 54.33915847 -16.12304783 57.16416454 C-16.12503888 58.01660281 -16.12702993 58.86904108 -16.12908131 59.74731082 C-16.12616847 60.68407273 -16.12325563 61.62083464 -16.12025452 62.58598328 C-16.12110894 63.58084977 -16.12196337 64.57571627 -16.12284368 65.60073024 C-16.12449679 68.94957715 -16.11897984 72.29837447 -16.11352539 75.6472168 C-16.11324346 78.04171752 -16.11340137 80.43621832 -16.1139679 82.83071899 C-16.11419595 87.99375072 -16.11135114 93.15677114 -16.10573006 98.31979942 C-16.09760816 105.78470099 -16.09499913 113.24959645 -16.09374207 120.71450195 C-16.09155263 132.82537781 -16.08489548 144.93624694 -16.07543945 157.04711914 C-16.06626253 168.8127438 -16.05918306 180.57836663 -16.05493164 192.34399414 C-16.05466892 193.0690459 -16.05440619 193.79409765 -16.05413551 194.54112067 C-16.05283049 198.17843807 -16.05156677 201.81575548 -16.05032361 205.45307291 C-16.03995438 235.63538676 -16.02226475 265.81769244 -16 296 C-11.38 296 -6.76 296 -2 296 C-1.93156615 265.27277438 -1.87847301 234.54556619 -1.84680401 203.81828257 C-1.84305188 200.19086664 -1.83916891 196.56345086 -1.83520508 192.93603516 C-1.83441815 192.21388024 -1.83363122 191.49172533 -1.83282044 190.74768694 C-1.81976557 179.05377048 -1.79611128 167.35989826 -1.76854161 155.66600804 C-1.74048966 143.66751016 -1.72382419 131.66903545 -1.71773452 119.67050612 C-1.7139871 112.9308935 -1.70497187 106.19137313 -1.68280983 99.45179367 C-1.66247291 93.11042348 -1.6561606 86.76919512 -1.66067696 80.42779541 C-1.65985051 78.09854995 -1.65386837 75.76929984 -1.64238358 73.44008255 C-1.62748351 70.26280764 -1.63103764 67.08607 -1.63923645 63.90878296 C-1.63049793 62.98465052 -1.6217594 62.06051808 -1.61275607 61.10838163 C-1.64838093 56.00944566 -2.08719516 52.38402783 -5 48 C-9.18033447 46.12985037 -11.50492564 47.28160883 -15 50 Z M-40.3125 71.125 C-41.75371849 71.85193488 -43.19514201 72.57846332 -44.63671875 73.3046875 C-45.46478027 73.72202148 -46.2928418 74.13935547 -47.14599609 74.56933594 C-49.8337207 75.91664699 -52.52627512 77.25386758 -55.22105408 78.58700562 C-57.72799865 79.82743557 -60.23333388 81.07109878 -62.73861694 82.31488037 C-63.98877646 82.93461065 -65.23960406 83.55299521 -66.49111938 84.16998291 C-68.27982383 85.05220847 -70.065733 85.9400943 -71.8515625 86.828125 C-72.89135254 87.3427832 -73.93114258 87.85744141 -75.00244141 88.38769531 C-78.07280482 89.97813461 -78.07280482 89.97813461 -81.08691406 92.05957031 C-83.62114323 93.7476405 -85.97025863 95.02483213 -88.7578125 96.21875 C-89.62494873 96.59193359 -90.49208496 96.96511719 -91.38549805 97.34960938 C-92.28953369 97.72923828 -93.19356934 98.10886719 -94.125 98.5 C-95.06061768 98.89509766 -95.99623535 99.29019531 -96.96020508 99.69726562 C-112.31438393 106.11624117 -124.74934145 108.1168215 -141.36328125 108.2109375 C-142.72707399 108.22393284 -144.09085909 108.23775232 -145.45463562 108.25234985 C-151.19731149 108.31338839 -156.93995079 108.36814705 -162.68286133 108.40136719 C-166.2153485 108.42233472 -169.74744886 108.45762683 -173.27971458 108.50212479 C-175.26543878 108.5230648 -177.25130847 108.52832189 -179.23713684 108.53329468 C-180.44576889 108.54986115 -181.65440094 108.56642761 -182.8996582 108.58349609 C-183.95981644 108.59158295 -185.01997467 108.5996698 -186.11225891 108.60800171 C-189.4435638 109.06021186 -191.32221587 109.99028824 -194 112 C-195.51149082 115.08869864 -196.30777715 116.89200227 -195.375 120.25 C-193.71112223 122.36766261 -192.497166 122.99774711 -190 124 C-187.36688052 124.30150166 -187.36688052 124.30150166 -184.47558594 124.25878906 C-183.36632751 124.26509338 -182.25706909 124.27139771 -181.11419678 124.27789307 C-179.91635559 124.2738446 -178.7185144 124.26979614 -177.484375 124.265625 C-175.61872894 124.26849518 -175.61872894 124.26849518 -173.71539307 124.27142334 C-171.07574653 124.27278558 -168.43646889 124.27009344 -165.796875 124.26074219 C-161.80720659 124.24727739 -157.81779704 124.26058035 -153.828125 124.2734375 C-130.24606354 124.5379838 -130.24606354 124.5379838 -107.3125 119.625 C-106.22727051 119.25894653 -106.22727051 119.25894653 -105.12011719 118.88549805 C-95.8713834 115.53435129 -87.55147245 110.32427342 -79.15820312 105.26806641 C-76.50126 103.70696204 -73.7798572 102.32824538 -71 101 C-70.34128906 100.66871094 -69.68257813 100.33742187 -69.00390625 99.99609375 C-67.41343189 99.20550708 -65.81539927 98.43012896 -64.21484375 97.66015625 C-47.56066217 90.31983667 -47.56066217 90.31983667 -33 80 C-32.92755947 77.98035801 -32.91622812 75.95832876 -32.9375 73.9375 C-32.94652344 72.83277344 -32.95554688 71.72804688 -32.96484375 70.58984375 C-32.97644531 69.73519531 -32.98804688 68.88054687 -33 68 C-35.43150346 68 -38.14403716 70.02642761 -40.3125 71.125 Z M-182 157 C-183.49371368 159.02235309 -184.94125983 161.06060937 -186.375 163.125 C-193.25667938 172.89069233 -200.63516781 182.22484374 -208.3125 191.375 C-211.12747161 194.73770133 -213.93243043 198.10062484 -216.625 201.5625 C-217.09164062 202.16191406 -217.55828125 202.76132812 -218.0390625 203.37890625 C-219.25495801 205.11602851 -219.25495801 205.11602851 -219 208 C-219.99 208.495 -219.99 208.495 -221 209 C-221.97795066 210.17583511 -222.90942898 211.39072352 -223.8125 212.625 C-224.60333984 213.70007813 -224.60333984 213.70007813 -225.41015625 214.796875 C-226.86709235 216.81582331 -228.31136898 218.84298704 -229.75 220.875 C-232 224 -232 224 -234 226 C-216.51 226 -199.02 226 -181 226 C-181 203.23 -181 180.46 -181 157 C-181.33 157 -181.66 157 -182 157 Z M163 157 C163 179.77 163 202.54 163 226 C180.49 226 197.98 226 216 226 C215.01 225.505 215.01 225.505 214 225 C213.71125 224.2575 213.4225 223.515 213.125 222.75 C211.84954376 219.63221807 210.26697404 217.47950285 208 215 C207.34 215 206.68 215 206 215 C205.7525 214.113125 205.505 213.22625 205.25 212.3125 C203.62799292 208.01418123 201.21618289 205.21618289 198 202 C197.08910443 200.82401408 196.19529949 199.63472123 195.3125 198.4375 C192.46643188 194.60786422 189.55331244 190.83595797 186.61328125 187.078125 C185.51103335 185.65828025 184.44704588 184.20811508 183.41796875 182.734375 C182.95003906 182.16203125 182.48210937 181.5896875 182 181 C181.34 181 180.68 181 180 181 C179.690625 180.01966797 179.690625 180.01966797 179.375 179.01953125 C177.46014229 174.81446019 174.78191572 171.35844775 172 167.6875 C171.4534375 166.94693359 170.906875 166.20636719 170.34375 165.44335938 C169.8178125 164.74404297 169.291875 164.04472656 168.75 163.32421875 C168.27046875 162.68572998 167.7909375 162.04724121 167.296875 161.3894043 C166.65492188 160.70164917 166.65492188 160.70164917 166 160 C165.34 160 164.68 160 164 160 C163.67 159.01 163.34 158.02 163 157 Z M-165 158 C-165 180.44 -165 202.88 -165 226 C-147.51 226 -130.02 226 -112 226 C-112.99 224.68 -113.98 223.36 -115 222 C-115.57878906 221.22140625 -116.15757812 220.4428125 -116.75390625 219.640625 C-117.35074219 218.85171875 -117.94757813 218.0628125 -118.5625 217.25 C-119.16191406 216.45078125 -119.76132813 215.6515625 -120.37890625 214.828125 C-120.91386719 214.22484375 -121.44882813 213.6215625 -122 213 C-122.66 213 -123.32 213 -124 213 C-124.11472656 212.41605469 -124.22945312 211.83210938 -124.34765625 211.23046875 C-125.04700069 208.83929706 -125.97305498 207.31579126 -127.4375 205.3125 C-127.86933594 204.71050781 -128.30117187 204.10851562 -128.74609375 203.48828125 C-129.95001852 201.86004553 -129.95001852 201.86004553 -132 201 C-132.433125 200.0925 -132.86625 199.185 -133.3125 198.25 C-135.1223177 194.76442516 -137.20540876 192.72472646 -140 190 C-141.03013277 188.35178756 -142.03114628 186.68496298 -143 185 C-144.96509909 182.2299003 -144.96509909 182.2299003 -147 180 C-147.66 180 -148.32 180 -149 180 C-149.09410156 179.43796875 -149.18820313 178.8759375 -149.28515625 178.296875 C-150.1759409 175.43468169 -151.58871882 173.60229539 -153.4375 171.25 C-154.05496094 170.45078125 -154.67242187 169.6515625 -155.30859375 168.828125 C-155.86675781 168.22484375 -156.42492187 167.6215625 -157 167 C-157.66 167 -158.32 167 -159 167 C-159.061875 166.443125 -159.12375 165.88625 -159.1875 165.3125 C-160.10179698 162.17698458 -160.10179698 162.17698458 -165 158 Z M146 158 C144.31540812 160.03924281 142.68029892 162.09604581 141.0625 164.1875 C140.32314209 165.13556519 140.32314209 165.13556519 139.56884766 166.1027832 C135.89611592 170.81974602 132.26070529 175.56524625 128.63110352 180.31542969 C125.99309477 183.75335751 123.27396198 187.10874563 120.5 190.4375 C116.70960288 195.02727789 113.24047681 199.77899058 109.81835938 204.64355469 C106.41206888 209.47134707 102.85533008 214.16622971 99.22290039 218.82568359 C97.39276135 221.17513068 95.6534548 223.51981779 94 226 C111.49 226 128.98 226 147 226 C147 203.56 147 181.12 147 158 C146.67 158 146.34 158 146 158 Z M-242 242 C-237.69226793 252.33855698 -232.06041995 264.1535953 -220.9296875 268.87890625 C-214.09039791 271.27845361 -207.41657901 272.11822521 -200.16943359 272.16113281 C-198.85051117 272.17074036 -197.53158875 272.1803479 -196.17269897 272.19024658 C-194.74794694 272.19509709 -193.32319286 272.19937529 -191.8984375 272.203125 C-191.17086872 272.20595238 -190.44329994 272.20877975 -189.69368362 272.21169281 C-185.84021906 272.22663133 -181.9867914 272.23589341 -178.13330078 272.24023438 C-174.18982133 272.24569906 -170.2466906 272.2696998 -166.30331993 272.29820633 C-163.23860751 272.31700183 -160.17397611 272.32204728 -157.10921097 272.32357025 C-155.6574069 272.32656133 -154.20560299 272.33446686 -152.75385666 272.34775543 C-138.62887563 272.46778179 -126.35173031 271.15862598 -115.375 261.75 C-109.95420358 255.47328835 -106.95164732 249.87105953 -104 242 C-149.54 242 -195.08 242 -242 242 Z M86 242 C90.2018455 252.87753175 90.2018455 252.87753175 97 262 C97.66 262 98.32 262 99 262 C99.66 262.7425 100.32 263.485 101 264.25 C106.91574448 270.41077531 116.09709514 271.79889649 124.25991821 272.13371277 C125.37764618 272.13752457 126.49537415 272.14133636 127.64697266 272.14526367 C128.92585358 272.15164352 130.2047345 272.15802338 131.52236938 272.16459656 C132.90293337 272.16612624 134.28349786 272.16723966 135.6640625 272.16796875 C137.10265128 272.17118894 138.54123975 272.17455357 139.97982788 272.17805481 C142.99062863 272.18402472 146.00140078 272.18589706 149.01220703 272.18530273 C152.83454295 272.18520156 156.65669126 272.19881743 160.47898293 272.21607494 C163.45104787 272.22730183 166.42306909 272.22921865 169.39515305 272.22869301 C170.80228696 272.2298585 172.20942256 272.23419785 173.61653519 272.24202538 C187.55279866 272.31226063 201.63923893 272.26720008 212.5625 262.53125 C218.32223105 256.39588432 220.84276939 249.89307652 224 242 C178.46 242 132.92 242 86 242 Z M-49.8125 319.625 C-53.26887693 324.22963637 -54.47498943 329.99146114 -55.44921875 335.57421875 C-55.58972656 336.37472656 -55.73023438 337.17523438 -55.875 338 C-55.97554687 338.721875 -56.07609375 339.44375 -56.1796875 340.1875 C-57 342 -57 342 -59.05859375 343.25 C-62.80970849 344.20645954 -66.35432116 344.12614989 -70.1875 344 C-79.80882094 343.87490129 -87.3974025 344.1600303 -95.30859375 350.171875 C-97.57365102 352.44938973 -97.57365102 352.44938973 -100 358 C-40.27 358 19.46 358 81 358 C79.82110558 353.28442231 78.33680446 350.46661368 74.1328125 347.828125 C67.22856135 344.23270365 61.0660924 343.84610616 53.39208984 343.81054688 C51.94981773 343.79810692 51.94981773 343.79810692 50.47840881 343.78541565 C48.3951721 343.76804799 46.31191622 343.75287228 44.22864914 343.73963928 C40.9340892 343.71857837 37.63962589 343.69155998 34.34512329 343.66296387 C26.16586118 343.59319881 17.98653026 343.53368614 9.80718994 343.47393799 C2.89007039 343.42303581 -4.02699634 343.36822875 -10.94404221 343.30812073 C-14.19409372 343.28151579 -17.44415012 343.26072275 -20.69424438 343.2401123 C-22.67979165 343.22351308 -24.66533666 343.20664157 -26.65087891 343.18945312 C-27.55796097 343.18526871 -28.46504303 343.18108429 -29.39961243 343.17677307 C-30.64446159 343.16425758 -30.64446159 343.16425758 -31.91445923 343.15148926 C-32.99566009 343.14375866 -32.99566009 343.14375866 -34.09870338 343.13587189 C-36 343 -36 343 -39 342 C-40.19754817 338.40735548 -40.33094958 335.77282526 -40 332 C-37.79109653 328.94768 -36.57477042 328.09390836 -32.82354736 327.48101807 C-31.57112244 327.47213562 -30.31869751 327.46325317 -29.02832031 327.45410156 C-28.3352327 327.44376389 -27.64214508 327.43342621 -26.92805481 327.42277527 C-24.64450757 327.39335304 -22.36184687 327.39184832 -20.078125 327.390625 C-18.4919872 327.37564283 -16.90586501 327.3589156 -15.31976318 327.34051514 C-11.15064781 327.29683293 -6.98174288 327.27684079 -2.81243896 327.26177979 C1.44417773 327.2422117 5.70056706 327.20024141 9.95703125 327.16015625 C18.30462802 327.0848448 26.65213552 327.03455922 35 327 C34.56429687 325.89140625 34.12859375 324.7828125 33.6796875 323.640625 C33.31206299 322.70524902 33.31206299 322.70524902 32.93701172 321.75097656 C31.35780773 318.79994711 28.8540919 317.59829146 26 316 C25.24001709 315.4829248 24.48003418 314.96584961 23.69702148 314.43310547 C15.22502864 309.93137668 2.12603331 311.84091517 -7.44116211 311.86962891 C-9.56436263 311.87500472 -11.68735255 311.86963446 -13.81054688 311.86328125 C-33.25699698 311.10391671 -33.25699698 311.10391671 -49.8125 319.625 Z " fill="#020202" transform="translate(259,63)"/>
<path d="M0 0 C0.66 1.32 1.32 2.64 2 4 C-2.75 8 -2.75 8 -5 8 C-3.8141763 4.62496331 -2.72426311 2.35277269 0 0 Z " fill="#575757" transform="translate(53,161)"/>
<path d="M0 0 C1 4 1 4 1 4 Z " fill="#000000" transform="translate(423,278)"/>
<path d="" fill="#808080" transform="translate(0,0)"/>
<path d="" fill="#000000" transform="translate(0,0)"/>
<path d="" fill="#808080" transform="translate(0,0)"/>
<path d="" fill="#FFFFFF" transform="translate(0,0)"/>
<path d="" fill="#808080" transform="translate(0,0)"/>
<path d="" fill="#FFFFFF" transform="translate(0,0)"/>
<path d="" fill="#808080" transform="translate(0,0)"/>
<path d="" fill="#808080" transform="translate(0,0)"/>
<path d="" fill="#FFFFFF" transform="translate(0,0)"/>
<path d="" fill="#000000" transform="translate(0,0)"/>
<path d="" fill="#000000" transform="translate(0,0)"/>
<path d="" fill="#808080" transform="translate(0,0)"/>
<path d="" fill="#FFFFFF" transform="translate(0,0)"/>
<path d="" fill="#FFFFFF" transform="translate(0,0)"/>
<path d="" fill="#FFFFFF" transform="translate(0,0)"/>
<path d="" fill="#FFFFFF" transform="translate(0,0)"/>
</svg>
