<svg version="1.1" id="Layer_1" xmlns="http://www.w3.org/2000/svg" xmlns:xlink="http://www.w3.org/1999/xlink" x="0px" y="0px"
	 width="100%" viewBox="0 0 115 113" enable-background="new 0 0 115 113" xml:space="preserve">
<path fill="none" opacity="1.000000" stroke="#000000" stroke-linecap="round" stroke-linejoin="round" stroke-width="4.000000"
	d="
M42.500000,75.500000 
	C47.237514,73.961098 51.975029,72.422195 56.809074,70.851936 
	C57.228405,69.631561 56.977406,68.339813 56.519413,66.993401 
	C54.546867,61.194450 56.089287,56.045460 58.298153,50.420734 
	C62.569752,39.543392 53.922161,24.921503 43.539967,21.382750 
	C31.898706,17.414845 20.243677,21.091375 13.922739,30.950466 
	C7.179643,41.468021 8.710051,55.903206 19.121342,63.329895 
	C23.522230,66.469185 25.716333,70.135986 26.407471,75.013115 
	C26.655375,76.762482 27.667076,77.749794 28.350790,79.029541 
	C32.991127,77.960068 37.200249,75.651115 42.000000,76.000000 
"/>
<path fill="none" opacity="1.000000" stroke="#000000" stroke-linecap="round" stroke-linejoin="round" stroke-width="4.000000"
	d="
M63.500000,73.000000 
	C64.500000,72.840523 65.243469,72.338692 66.543449,72.899231 
	C72.901146,75.640587 79.894012,76.090630 86.435455,78.113419 
	C87.486504,76.479286 87.802917,74.808975 88.069283,73.010262 
	C88.654549,69.058067 90.523155,65.843315 93.971954,63.459427 
	C101.067474,58.554867 104.557274,51.697849 104.520737,42.999912 
	C104.474602,32.017117 94.692863,20.372234 83.513969,19.347557 
	C74.702705,18.539902 67.415573,20.127266 62.000000,27.500000 
"/>
<path fill="none" opacity="1.000000" stroke="#000000" stroke-linecap="round" stroke-linejoin="round" stroke-width="4.000000"
	d="
M20.500000,44.500000 
	C20.682325,50.104534 24.142195,57.031162 31.506283,57.949627 
	C40.357758,59.053612 45.556736,56.127914 47.914066,48.473534 
	C49.870811,42.119884 48.428379,36.018280 40.974850,31.541874 
	C33.172291,26.855843 22.952677,32.188061 20.508537,42.002125 
	C20.342455,42.668999 20.822006,43.497169 20.000000,44.000000 
"/>
<path fill="none" opacity="1.000000" stroke="#000000" stroke-linecap="round" stroke-linejoin="round" stroke-width="4.000000"
	d="
M71.000000,82.500000 
	C72.734192,84.833336 73.697365,86.976982 71.053955,89.555313 
	C68.592316,91.956352 66.834328,95.053810 62.480629,93.556320 
	C59.111481,92.397476 55.273468,92.299324 52.062138,93.217361 
	C48.589176,94.210197 46.641449,93.042152 44.496830,91.003334 
	C42.287888,88.903374 40.950729,86.460655 42.548199,83.526237 
	C43.956917,80.938538 42.165676,78.833405 42.000000,76.500000 
"/>
<path fill="none" opacity="1.000000" stroke="#000000" stroke-linecap="round" stroke-linejoin="round" stroke-width="4.000000"
	d="
M72.000000,76.000000 
	C71.300934,79.024475 71.599525,82.032684 67.085045,83.302376 
	C63.759396,84.237717 60.720284,87.594276 60.500000,92.000000 
"/>
<path fill="none" opacity="1.000000" stroke="#000000" stroke-linecap="round" stroke-linejoin="round" stroke-width="4.000000"
	d="
M44.000000,82.000000 
	C49.610668,83.294922 52.694939,86.541527 53.500000,92.000000 
"/>
<path fill="none" opacity="1.000000" stroke="#000000" stroke-linecap="round" stroke-linejoin="round" stroke-width="3.000000"
	d="
M84.500000,65.500000 
	C80.540176,66.020088 81.574593,69.037300 81.500000,71.500000 
"/>
<path fill="none" opacity="1.000000" stroke="#000000" stroke-linecap="round" stroke-linejoin="round" stroke-width="4.000000"
	d="
M78.000000,29.500000 
	C72.834145,30.530508 68.656776,32.937843 66.510544,38.004467 
	C63.710495,44.614552 67.565666,54.312347 74.000000,56.999996 
	C81.250221,60.028450 89.825920,55.819122 93.104843,48.547276 
	C97.222984,39.414238 88.454361,27.838053 78.500000,29.500000 
"/>
</svg>