<svg version="1.1" id="Layer_1" xmlns="http://www.w3.org/2000/svg" xmlns:xlink="http://www.w3.org/1999/xlink" x="0px" y="0px"
	 width="100%" viewBox="0 0 144 134" enable-background="new 0 0 144 134" xml:space="preserve">
<path fill="none" opacity="1.000000" stroke="#000000" stroke-linecap="round" stroke-linejoin="round" stroke-width="5.000000"
	d="
M94.000000,92.500000 
	C95.065056,83.833336 94.174904,75.166664 94.643478,66.250000 
	C80.833336,66.250000 67.666664,66.250000 54.000000,66.250000 
	C54.000000,74.326241 53.978153,82.163216 54.010063,89.999962 
	C54.024078,93.442383 56.506100,93.504433 59.000004,93.502075 
	C65.499992,93.495918 72.000381,93.540855 78.499817,93.480385 
	C81.191338,93.455345 83.985001,94.046654 86.500000,92.500000 
"/>
<path fill="none" opacity="1.000000" stroke="#000000" stroke-linecap="round" stroke-linejoin="round" stroke-width="4.000000"
	d="
M42.500000,86.000000 
	C44.077518,89.000000 43.490765,91.843559 42.639301,95.037140 
	C41.402184,99.677170 40.512165,104.400940 39.186436,109.053131 
	C38.284740,112.217316 41.506107,112.502914 44.000000,112.502045 
	C56.666668,112.497604 69.333336,112.500000 82.000000,112.500000 
	C89.666664,112.500000 97.333557,112.534317 104.999908,112.485710 
	C108.914566,112.460899 110.738075,110.759918 109.364197,107.558273 
	C107.333961,102.827072 107.718506,97.606766 105.275444,92.858284 
	C103.783813,89.959061 105.000000,85.666664 105.000000,82.000000 
	C105.000000,78.333336 104.973961,74.666374 105.014557,71.000160 
	C105.028206,69.767426 104.439987,68.134155 106.014801,67.539177 
	C110.328346,65.909462 109.019592,62.949669 107.995430,59.901787 
	C100.119194,58.924198 94.675407,53.927971 89.500000,48.500000 
"/>
<path fill="none" opacity="1.000000" stroke="#000000" stroke-linecap="round" stroke-linejoin="round" stroke-width="4.000000"
	d="
M46.500000,105.000000 
	C48.103207,105.801270 49.825539,105.486305 51.500015,105.488251 
	C68.166656,105.507629 84.833336,105.500000 101.500000,105.500000 
"/>
<path fill="none" opacity="1.000000" stroke="#000000" stroke-linecap="round" stroke-linejoin="round" stroke-width="4.000000"
	d="
M100.500000,99.500000 
	C83.500000,99.500000 66.500000,99.500000 49.500000,99.500000 
"/>
<path fill="none" opacity="1.000000" stroke="#000000" stroke-linecap="round" stroke-linejoin="round" stroke-width="5.000000"
	d="
M41.500000,95.500000 
	C36.194881,94.430412 30.832535,95.173637 25.499023,95.038597 
	C22.539766,94.963676 21.781502,94.263084 22.364851,90.976013 
	C23.857361,82.565979 24.419510,73.593018 22.514103,65.616066 
	C20.679512,57.935574 25.763531,54.098656 27.568035,48.522015 
	C27.991741,47.212593 29.454157,46.852642 31.002453,46.966694 
	C40.154205,47.640820 49.363857,45.936707 58.531178,47.850677 
	C60.500969,48.261936 63.093349,47.681240 65.023094,46.026943 
	C66.917099,44.403294 69.053871,43.065746 70.985855,41.482735 
	C73.213387,39.657566 75.111641,39.262615 77.544914,41.450035 
	C83.064590,46.411991 89.406090,48.239666 97.023979,47.170914 
	C103.071609,46.322464 109.366882,47.390434 115.488358,46.864525 
	C119.659721,46.506157 121.905411,48.375751 123.433441,51.532223 
	C124.734619,54.220089 125.260086,57.239426 127.430931,59.564484 
	C128.048950,60.226398 128.315216,62.378799 127.926712,62.641689 
	C123.163651,65.864677 126.084839,70.564529 125.605072,74.512764 
	C125.126083,78.454559 125.500000,82.500000 125.500000,86.500000 
	C125.500000,87.500000 125.249573,88.580528 125.541008,89.486816 
	C127.315590,95.005302 127.355049,94.908791 121.500519,95.025909 
	C116.666603,95.122620 111.804146,94.486855 107.000000,95.500000 
"/>
<path fill="none" opacity="1.000000" stroke="#000000" stroke-linecap="round" stroke-linejoin="round" stroke-width="4.000000"
	d="
M106.000000,86.000000 
	C109.170929,85.711746 112.341850,85.423492 115.750000,85.113678 
	C115.750000,82.186203 115.750000,79.343109 115.750000,76.067963 
	C112.795631,74.877022 109.340034,75.766342 106.000000,75.500000 
"/>
<path fill="none" opacity="1.000000" stroke="#000000" stroke-linecap="round" stroke-linejoin="round" stroke-width="4.000000"
	d="
M98.500000,93.500000 
	C95.833336,93.500000 93.164902,93.438889 90.500458,93.515839 
	C87.339882,93.607117 85.816887,92.374428 85.954727,88.998154 
	C86.138138,84.505638 86.000000,80.000000 86.000000,75.000000 
	C78.518295,75.000000 71.014229,75.000000 63.049667,75.000000 
	C62.156166,80.632042 62.208942,86.305168 63.000000,92.000000 
"/>
<path fill="none" opacity="1.000000" stroke="#000000" stroke-linecap="round" stroke-linejoin="round" stroke-width="4.000000"
	d="
M42.000000,75.500000 
	C40.666668,75.500000 39.333298,75.493858 38.000008,75.501144 
	C33.865959,75.523727 30.775909,80.511642 33.077290,83.948242 
	C35.132999,87.017982 38.661255,85.253960 41.505276,85.388489 
	C43.283489,85.472603 43.606724,83.572716 43.486160,82.001060 
	C43.330856,79.976501 44.136185,77.782860 42.500000,76.000000 
"/>
<path fill="none" opacity="1.000000" stroke="#000000" stroke-linecap="round" stroke-linejoin="round" stroke-width="4.000000"
	d="
M59.000000,48.500000 
	C54.959133,54.046616 49.389462,57.367470 43.002193,59.506550 
	C42.402405,59.707420 41.434666,59.873360 41.309071,60.268761 
	C38.969742,67.633301 32.749249,63.152790 28.444729,64.290970 
	C27.134670,64.637367 25.166666,64.000641 23.500000,64.500000 
"/>
<path fill="none" opacity="1.000000" stroke="#000000" stroke-linecap="round" stroke-linejoin="round" stroke-width="4.000000"
	d="
M74.500000,76.000000 
	C74.500000,81.333336 74.500000,86.666664 74.500000,92.000000 
"/>
<path fill="none" opacity="1.000000" stroke="#000000" stroke-linecap="round" stroke-linejoin="round" stroke-width="5.000000"
	d="
M110.000000,64.000000 
	C114.995377,64.305313 120.031944,63.375099 125.000000,64.500000 
"/>
<path fill="none" opacity="1.000000" stroke="#000000" stroke-linecap="round" stroke-linejoin="round" stroke-width="4.000000"
	d="
M81.500000,54.500000 
	C76.833336,54.500000 72.166664,54.500000 67.500000,54.500000 
"/>
<path fill="none" opacity="1.000000" stroke="#000000" stroke-linecap="round" stroke-linejoin="round" stroke-width="4.000000"
	d="
M40.000000,64.500000 
	C43.833191,67.484879 44.568573,71.173805 42.500000,75.500000 
"/>
</svg>