<svg version="1.1" id="Layer_1" xmlns="http://www.w3.org/2000/svg" xmlns:xlink="http://www.w3.org/1999/xlink" x="0px" y="0px"
	 width="100%" viewBox="0 0 165 137" enable-background="new 0 0 165 137" xml:space="preserve">
<path fill="none" opacity="1.000000" stroke="#000000" stroke-linecap="round" stroke-linejoin="round" stroke-width="4.000000"
	d="
M107.500000,36.500000 
	C105.874901,32.894695 103.518311,29.415409 99.945206,28.155382 
	C92.266258,25.447468 84.372452,23.001135 75.995125,25.483555 
	C66.119133,28.410069 66.103226,28.356394 60.439117,35.577621 
	C60.812149,39.115536 64.107330,40.543510 65.996574,43.132179 
	C77.833336,40.008041 89.666664,40.051907 101.519714,43.106300 
	C104.157524,41.657528 105.389107,38.889103 107.500000,37.000000 
"/>
<path fill="none" opacity="1.000000" stroke="#000000" stroke-linecap="round" stroke-linejoin="round" stroke-width="4.000000"
	d="
M68.750000,85.000000 
	C60.245590,84.126991 54.075722,88.634483 51.627792,98.531609 
	C50.349499,103.699814 49.052807,109.027435 49.500000,114.500000 
"/>
<path fill="none" opacity="1.000000" stroke="#000000" stroke-linecap="round" stroke-linejoin="round" stroke-width="4.000000"
	d="
M118.000000,112.000000 
	C117.525856,106.190758 117.048698,100.432823 114.559784,94.972748 
	C112.289162,89.991562 109.981453,85.769386 103.516762,85.278999 
	C101.333183,85.113373 98.525368,85.634651 96.450371,83.549385 
	C94.811813,81.902733 93.163864,83.615921 92.059830,84.569290 
	C89.751236,86.562820 87.013443,88.180115 85.500000,91.000000 
"/>
<path fill="none" opacity="1.000000" stroke="#000000" stroke-linecap="round" stroke-linejoin="round" stroke-width="4.000000"
	d="
M101.500000,43.500000 
	C101.500000,45.000000 101.693344,46.532124 101.450813,47.991829 
	C101.150818,49.797337 100.466690,51.483921 97.996552,51.018280 
	C97.352768,50.896919 96.482460,50.729813 96.027336,51.040100 
	C87.823112,56.633457 80.183304,54.691673 71.312653,51.524780 
	C65.693817,49.518803 66.876793,46.859917 66.500000,43.500000 
"/>
<path fill="none" opacity="1.000000" stroke="#000000" stroke-linecap="round" stroke-linejoin="round" stroke-width="4.000000"
	d="
M100.000000,51.500000 
	C101.730766,60.965813 97.248535,68.589684 91.827408,75.361839 
	C88.220718,79.867355 77.705605,77.501579 73.956589,72.532761 
	C69.994949,67.282135 67.806389,61.424576 67.065369,54.992470 
	C66.937088,53.878986 67.666672,52.666668 68.000000,51.500000 
"/>
<path fill="none" opacity="1.000000" stroke="#000000" stroke-linecap="round" stroke-linejoin="round" stroke-width="4.000000"
	d="
M94.500000,50.000000 
	C87.166664,47.599216 79.833336,47.599216 72.500000,50.000000 
"/>
<path fill="none" opacity="1.000000" stroke="#000000" stroke-linecap="round" stroke-linejoin="round" stroke-width="4.000000"
	d="
M82.500000,91.000000 
	C80.699539,87.917160 77.696548,86.084961 74.960388,84.053352 
	C72.361717,82.123840 69.998802,83.307632 69.119980,86.038612 
	C68.462532,88.081619 66.628281,90.063606 70.796074,92.368713 
	C75.843887,95.160538 79.031670,92.426712 83.291206,91.270462 
	C84.297745,98.789497 82.595200,106.215370 84.000000,113.500000 
"/>
<path fill="none" opacity="1.000000" stroke="#000000" stroke-linecap="round" stroke-linejoin="round" stroke-width="5.000000"
	d="
M99.000008,85.500000 
	C99.303795,87.255112 99.607590,89.010223 99.901299,90.707130 
	C95.496231,94.040710 90.895615,95.145287 85.964241,91.549034 
	C85.568710,91.260574 84.666664,91.666664 84.000000,91.750000 
"/>
<path fill="none" opacity="1.000000" stroke="#000000" stroke-linecap="round" stroke-linejoin="round" stroke-width="4.000000"
	d="
M98.500000,102.500000 
	C94.473480,103.536255 95.328102,106.822090 95.614990,109.487625 
	C95.776093,110.984451 96.681694,112.579201 99.000381,112.565613 
	C101.985176,112.548119 104.132706,111.949310 104.520035,108.502251 
	C105.006706,104.171082 104.239960,103.272835 99.000000,102.500000 
"/>
</svg>