<svg version="1.1" id="Layer_1" xmlns="http://www.w3.org/2000/svg" xmlns:xlink="http://www.w3.org/1999/xlink" x="0px" y="0px"
	 width="100%" viewBox="0 0 137 137" enable-background="new 0 0 137 137" xml:space="preserve">
<path fill="none" opacity="1.000000" stroke="#000000" stroke-linecap="round" stroke-linejoin="round" stroke-width="3.000000"
	d="
M59.000000,107.000000 
	C67.982727,99.136665 78.826088,93.141991 84.039223,81.517586 
	C86.274132,76.534142 85.521339,74.523575 82.166878,69.390938 
	C79.370102,65.111603 76.018105,61.519997 72.461327,58.039520 
	C69.805199,55.440365 67.621071,55.778732 65.536209,59.023266 
	C62.947044,63.052597 60.273224,66.980240 56.484428,69.980339 
	C54.937164,71.205513 53.675610,71.513412 51.892246,69.600456 
	C49.673489,67.220459 48.171803,68.337349 47.410000,71.478172 
	C46.671238,74.523979 46.997543,77.517143 47.074558,80.498077 
	C47.197613,85.260864 46.469856,89.652138 43.131153,93.977646 
	C48.239986,98.140259 53.369995,102.320129 58.500000,106.500000 
"/>
<path fill="none" opacity="1.000000" stroke="#000000" stroke-linecap="round" stroke-linejoin="round" stroke-width="3.000000"
	d="
M50.500000,33.000000 
	C55.968880,31.176767 56.796646,29.935120 55.425648,25.245678 
	C49.236725,26.937601 43.072502,28.693264 37.510784,32.018040 
	C31.471346,35.628391 30.816868,40.088146 35.504436,44.995762 
	C41.042316,50.793613 47.169205,56.043530 51.967686,62.523930 
	C52.938992,63.835690 54.445404,63.238503 55.500000,64.000000 
"/>
<path fill="none" opacity="1.000000" stroke="#000000" stroke-linecap="round" stroke-linejoin="round" stroke-width="3.000000"
	d="
M90.500000,77.500000 
	C92.557251,82.762405 97.763680,85.263618 101.045662,89.464325 
	C101.796898,90.425865 103.085526,91.127579 102.468788,92.485825 
	C99.932236,98.071968 99.775856,104.633194 95.500000,109.500000 
"/>
<path fill="none" opacity="1.000000" stroke="#000000" stroke-linecap="round" stroke-linejoin="round" stroke-width="3.000000"
	d="
M84.000000,94.000000 
	C90.431244,97.892311 93.202332,104.206787 95.250000,111.000000 
"/>
<path fill="none" opacity="1.000000" stroke="#000000" stroke-linecap="round" stroke-linejoin="round" stroke-width="3.000000"
	d="
M45.500000,41.500000 
	C48.862988,39.822067 51.817104,37.892025 54.674603,42.900383 
	C56.589973,46.257454 60.166668,48.666668 63.000000,51.500000 
"/>
<path fill="none" opacity="1.000000" stroke="#000000" stroke-linecap="round" stroke-linejoin="round" stroke-width="3.000000"
	d="
M58.500000,35.500000 
	C56.500000,37.000000 54.500000,38.500000 52.500000,40.000000 
"/>
</svg>