<svg version="1.1" id="Layer_1" xmlns="http://www.w3.org/2000/svg" xmlns:xlink="http://www.w3.org/1999/xlink" x="0px" y="0px"
	 width="100%" viewBox="0 0 133 139" enable-background="new 0 0 133 139" xml:space="preserve">
<path fill="none" opacity="1.000000" stroke="#000000" stroke-linecap="round" stroke-linejoin="round" stroke-width="3.000000"
	d="
M110.500000,93.500000 
	C95.166664,102.500000 79.794701,111.435555 64.546364,120.577339 
	C62.521961,121.791023 60.766499,121.986519 59.024269,120.958855 
	C48.142849,114.540375 37.326336,108.011589 26.510609,101.482422 
	C25.404539,100.814728 24.445915,99.902786 23.188238,98.924843 
	C27.924417,95.209198 32.968002,92.364113 37.998859,89.498001 
	C40.813484,87.894485 44.328770,87.160965 45.500000,83.500000 
"/>
<path fill="none" opacity="1.000000" stroke="#000000" stroke-linecap="round" stroke-linejoin="round" stroke-width="3.000000"
	d="
M98.000000,35.000000 
	C100.447098,39.075111 100.685944,42.482830 97.123489,46.606678 
	C88.937408,56.082783 81.260544,65.921021 72.217705,74.723648 
	C67.279564,79.530609 62.695923,84.454590 56.441986,87.375801 
	C55.292915,87.912537 54.046932,89.839455 51.915260,88.104095 
	C50.000713,86.545479 51.408573,85.165169 51.609772,84.019272 
	C52.788803,77.304390 55.531082,71.283463 59.933464,65.945129 
	C62.148140,63.259613 63.430008,59.820553 65.543610,57.033062 
	C72.352509,48.053299 79.351944,39.217999 86.300865,30.297539 
	C90.430748,31.553270 95.045738,30.639338 98.000000,34.500000 
"/>
<path fill="none" opacity="1.000000" stroke="#000000" stroke-linecap="round" stroke-linejoin="round" stroke-width="3.000000"
	d="
M109.500000,93.500000 
	C100.278137,86.332726 90.179764,80.668030 79.500000,76.000000 
"/>
<path fill="none" opacity="1.000000" stroke="#000000" stroke-linecap="round" stroke-linejoin="round" stroke-width="3.000000"
	d="
M104.500000,48.500000 
	C99.864296,55.724770 94.471680,62.344009 88.500000,68.500000 
"/>
<path fill="none" opacity="1.000000" stroke="#000000" stroke-linecap="round" stroke-linejoin="round" stroke-width="3.000000"
	d="
M61.500000,66.000000 
	C64.666664,68.666672 67.833336,71.333336 71.000000,74.000000 
"/>
<path fill="none" opacity="1.000000" stroke="#000000" stroke-linecap="round" stroke-linejoin="round" stroke-width="3.000000"
	d="
M94.500000,95.500000 
	C92.728188,94.656639 90.833382,94.971527 89.001610,95.041924 
	C87.448090,95.101631 85.609108,94.907463 85.116638,93.702339 
	C84.065277,91.129562 82.240150,91.137947 80.009422,90.908432 
	C77.789558,90.680054 75.705246,89.574860 74.005150,87.994453 
	C72.703835,86.784760 71.631302,85.196991 69.500000,85.500000 
"/>
</svg>